# generated by generate_meshes.py (NED, Z down)
v 0.300000 0.000000 0.000000
v 0.296307 0.046930 0.000000
v 0.285317 0.092705 0.000000
v 0.267302 0.136197 0.000000
v 0.242705 0.176336 0.000000
v 0.212132 0.212132 0.000000
v 0.176336 0.242705 0.000000
v 0.136197 0.267302 0.000000
v 0.092705 0.285317 0.000000
v 0.046930 0.296307 0.000000
v 0.000000 0.300000 0.000000
v -0.046930 0.296307 0.000000
v -0.092705 0.285317 0.000000
v -0.136197 0.267302 0.000000
v -0.176336 0.242705 0.000000
v -0.212132 0.212132 0.000000
v -0.242705 0.176336 0.000000
v -0.267302 0.136197 0.000000
v -0.285317 0.092705 0.000000
v -0.296307 0.046930 0.000000
v -0.300000 0.000000 0.000000
v -0.296307 -0.046930 0.000000
v -0.285317 -0.092705 0.000000
v -0.267302 -0.136197 0.000000
v -0.242705 -0.176336 0.000000
v -0.212132 -0.212132 0.000000
v -0.176336 -0.242705 0.000000
v -0.136197 -0.267302 0.000000
v -0.092705 -0.285317 0.000000
v -0.046930 -0.296307 0.000000
v -0.000000 -0.300000 0.000000
v 0.046930 -0.296307 0.000000
v 0.092705 -0.285317 0.000000
v 0.136197 -0.267302 0.000000
v 0.176336 -0.242705 0.000000
v 0.212132 -0.212132 0.000000
v 0.242705 -0.176336 0.000000
v 0.267302 -0.136197 0.000000
v 0.285317 -0.092705 0.000000
v 0.296307 -0.046930 0.000000
v 0.300000 0.000000 -0.300000
v 0.296307 0.046930 -0.300000
v 0.285317 0.092705 -0.300000
v 0.267302 0.136197 -0.300000
v 0.242705 0.176336 -0.300000
v 0.212132 0.212132 -0.300000
v 0.176336 0.242705 -0.300000
v 0.136197 0.267302 -0.300000
v 0.092705 0.285317 -0.300000
v 0.046930 0.296307 -0.300000
v 0.000000 0.300000 -0.300000
v -0.046930 0.296307 -0.300000
v -0.092705 0.285317 -0.300000
v -0.136197 0.267302 -0.300000
v -0.176336 0.242705 -0.300000
v -0.212132 0.212132 -0.300000
v -0.242705 0.176336 -0.300000
v -0.267302 0.136197 -0.300000
v -0.285317 0.092705 -0.300000
v -0.296307 0.046930 -0.300000
v -0.300000 0.000000 -0.300000
v -0.296307 -0.046930 -0.300000
v -0.285317 -0.092705 -0.300000
v -0.267302 -0.136197 -0.300000
v -0.242705 -0.176336 -0.300000
v -0.212132 -0.212132 -0.300000
v -0.176336 -0.242705 -0.300000
v -0.136197 -0.267302 -0.300000
v -0.092705 -0.285317 -0.300000
v -0.046930 -0.296307 -0.300000
v -0.000000 -0.300000 -0.300000
v 0.046930 -0.296307 -0.300000
v 0.092705 -0.285317 -0.300000
v 0.136197 -0.267302 -0.300000
v 0.176336 -0.242705 -0.300000
v 0.212132 -0.212132 -0.300000
v 0.242705 -0.176336 -0.300000
v 0.267302 -0.136197 -0.300000
v 0.285317 -0.092705 -0.300000
v 0.296307 -0.046930 -0.300000
v 0.285000 0.000000 -0.300000
v 0.281491 0.044584 -0.300000
v 0.271051 0.088070 -0.300000
v 0.253937 0.129387 -0.300000
v 0.230570 0.167519 -0.300000
v 0.201525 0.201525 -0.300000
v 0.167519 0.230570 -0.300000
v 0.129387 0.253937 -0.300000
v 0.088070 0.271051 -0.300000
v 0.044584 0.281491 -0.300000
v 0.000000 0.285000 -0.300000
v -0.044584 0.281491 -0.300000
v -0.088070 0.271051 -0.300000
v -0.129387 0.253937 -0.300000
v -0.167519 0.230570 -0.300000
v -0.201525 0.201525 -0.300000
v -0.230570 0.167519 -0.300000
v -0.253937 0.129387 -0.300000
v -0.271051 0.088070 -0.300000
v -0.281491 0.044584 -0.300000
v -0.285000 0.000000 -0.300000
v -0.281491 -0.044584 -0.300000
v -0.271051 -0.088070 -0.300000
v -0.253937 -0.129387 -0.300000
v -0.230570 -0.167519 -0.300000
v -0.201525 -0.201525 -0.300000
v -0.167519 -0.230570 -0.300000
v -0.129387 -0.253937 -0.300000
v -0.088070 -0.271051 -0.300000
v -0.044584 -0.281491 -0.300000
v -0.000000 -0.285000 -0.300000
v 0.044584 -0.281491 -0.300000
v 0.088070 -0.271051 -0.300000
v 0.129387 -0.253937 -0.300000
v 0.167519 -0.230570 -0.300000
v 0.201525 -0.201525 -0.300000
v 0.230570 -0.167519 -0.300000
v 0.253937 -0.129387 -0.300000
v 0.271051 -0.088070 -0.300000
v 0.281491 -0.044584 -0.300000
v 0.285000 0.000000 -0.015000
v 0.281491 0.044584 -0.015000
v 0.271051 0.088070 -0.015000
v 0.253937 0.129387 -0.015000
v 0.230570 0.167519 -0.015000
v 0.201525 0.201525 -0.015000
v 0.167519 0.230570 -0.015000
v 0.129387 0.253937 -0.015000
v 0.088070 0.271051 -0.015000
v 0.044584 0.281491 -0.015000
v 0.000000 0.285000 -0.015000
v -0.044584 0.281491 -0.015000
v -0.088070 0.271051 -0.015000
v -0.129387 0.253937 -0.015000
v -0.167519 0.230570 -0.015000
v -0.201525 0.201525 -0.015000
v -0.230570 0.167519 -0.015000
v -0.253937 0.129387 -0.015000
v -0.271051 0.088070 -0.015000
v -0.281491 0.044584 -0.015000
v -0.285000 0.000000 -0.015000
v -0.281491 -0.044584 -0.015000
v -0.271051 -0.088070 -0.015000
v -0.253937 -0.129387 -0.015000
v -0.230570 -0.167519 -0.015000
v -0.201525 -0.201525 -0.015000
v -0.167519 -0.230570 -0.015000
v -0.129387 -0.253937 -0.015000
v -0.088070 -0.271051 -0.015000
v -0.044584 -0.281491 -0.015000
v -0.000000 -0.285000 -0.015000
v 0.044584 -0.281491 -0.015000
v 0.088070 -0.271051 -0.015000
v 0.129387 -0.253937 -0.015000
v 0.167519 -0.230570 -0.015000
v 0.201525 -0.201525 -0.015000
v 0.230570 -0.167519 -0.015000
v 0.253937 -0.129387 -0.015000
v 0.271051 -0.088070 -0.015000
v 0.281491 -0.044584 -0.015000
v 0.000000 0.000000 0.000000
v 0.000000 0.000000 -0.015000
vn 0.996917 0.078459 0.000000
vn 0.996917 0.078459 0.000000
vn 0.000000 0.000000 -1.000000
vn 0.000000 0.000000 -1.000000
vn -0.996917 -0.078459 0.000000
vn -0.996917 -0.078459 0.000000
vn 0.000000 0.000000 -1.000000
vn 0.000000 0.000000 1.000000
vn 0.972370 0.233445 0.000000
vn 0.972370 0.233445 0.000000
vn 0.000000 0.000000 -1.000000
vn -0.000000 0.000000 -1.000000
vn -0.972370 -0.233445 0.000000
vn -0.972370 -0.233445 0.000000
vn -0.000000 0.000000 -1.000000
vn 0.000000 0.000000 1.000000
vn 0.923880 0.382683 0.000000
vn 0.923880 0.382683 0.000000
vn 0.000000 0.000000 -1.000000
vn -0.000000 0.000000 -1.000000
vn -0.923880 -0.382683 0.000000
vn -0.923880 -0.382683 0.000000
vn -0.000000 0.000000 -1.000000
vn 0.000000 0.000000 1.000000
vn 0.852640 0.522499 0.000000
vn 0.852640 0.522499 0.000000
vn 0.000000 0.000000 -1.000000
vn -0.000000 0.000000 -1.000000
vn -0.852640 -0.522499 0.000000
vn -0.852640 -0.522499 0.000000
vn -0.000000 0.000000 -1.000000
vn 0.000000 0.000000 1.000000
vn 0.760406 0.649448 0.000000
vn 0.760406 0.649448 0.000000
vn 0.000000 0.000000 -1.000000
vn -0.000000 0.000000 -1.000000
vn -0.760406 -0.649448 0.000000
vn -0.760406 -0.649448 0.000000
vn -0.000000 0.000000 -1.000000
vn 0.000000 0.000000 1.000000
vn 0.649448 0.760406 0.000000
vn 0.649448 0.760406 0.000000
vn 0.000000 0.000000 -1.000000
vn -0.000000 0.000000 -1.000000
vn -0.649448 -0.760406 0.000000
vn -0.649448 -0.760406 0.000000
vn -0.000000 0.000000 -1.000000
vn 0.000000 0.000000 1.000000
vn 0.522499 0.852640 0.000000
vn 0.522499 0.852640 0.000000
vn 0.000000 0.000000 -1.000000
vn -0.000000 0.000000 -1.000000
vn -0.522499 -0.852640 0.000000
vn -0.522499 -0.852640 0.000000
vn -0.000000 0.000000 -1.000000
vn 0.000000 0.000000 1.000000
vn 0.382683 0.923880 0.000000
vn 0.382683 0.923880 0.000000
vn 0.000000 0.000000 -1.000000
vn -0.000000 0.000000 -1.000000
vn -0.382683 -0.923880 0.000000
vn -0.382683 -0.923880 0.000000
vn -0.000000 0.000000 -1.000000
vn 0.000000 0.000000 1.000000
vn 0.233445 0.972370 0.000000
vn 0.233445 0.972370 0.000000
vn -0.000000 0.000000 -1.000000
vn 0.000000 0.000000 -1.000000
vn -0.233445 -0.972370 0.000000
vn -0.233445 -0.972370 0.000000
vn -0.000000 0.000000 -1.000000
vn 0.000000 0.000000 1.000000
vn 0.078459 0.996917 0.000000
vn 0.078459 0.996917 0.000000
vn -0.000000 0.000000 -1.000000
vn 0.000000 0.000000 -1.000000
vn -0.078459 -0.996917 0.000000
vn -0.078459 -0.996917 0.000000
vn -0.000000 0.000000 -1.000000
vn 0.000000 0.000000 1.000000
vn -0.078459 0.996917 0.000000
vn -0.078459 0.996917 0.000000
vn 0.000000 0.000000 -1.000000
vn 0.000000 0.000000 -1.000000
vn 0.078459 -0.996917 0.000000
vn 0.078459 -0.996917 0.000000
vn 0.000000 0.000000 -1.000000
vn -0.000000 0.000000 1.000000
vn -0.233445 0.972370 0.000000
vn -0.233445 0.972370 0.000000
vn 0.000000 0.000000 -1.000000
vn 0.000000 -0.000000 -1.000000
vn 0.233445 -0.972370 0.000000
vn 0.233445 -0.972370 0.000000
vn 0.000000 -0.000000 -1.000000
vn -0.000000 0.000000 1.000000
vn -0.382683 0.923880 0.000000
vn -0.382683 0.923880 0.000000
vn 0.000000 0.000000 -1.000000
vn 0.000000 -0.000000 -1.000000
vn 0.382683 -0.923880 0.000000
vn 0.382683 -0.923880 0.000000
vn 0.000000 -0.000000 -1.000000
vn -0.000000 0.000000 1.000000
vn -0.522499 0.852640 0.000000
vn -0.522499 0.852640 0.000000
vn 0.000000 0.000000 -1.000000
vn 0.000000 -0.000000 -1.000000
vn 0.522499 -0.852640 0.000000
vn 0.522499 -0.852640 0.000000
vn 0.000000 -0.000000 -1.000000
vn -0.000000 0.000000 1.000000
vn -0.649448 0.760406 0.000000
vn -0.649448 0.760406 0.000000
vn 0.000000 0.000000 -1.000000
vn 0.000000 -0.000000 -1.000000
vn 0.649448 -0.760406 0.000000
vn 0.649448 -0.760406 0.000000
vn 0.000000 -0.000000 -1.000000
vn -0.000000 0.000000 1.000000
vn -0.760406 0.649448 0.000000
vn -0.760406 0.649448 0.000000
vn 0.000000 0.000000 -1.000000
vn 0.000000 -0.000000 -1.000000
vn 0.760406 -0.649448 0.000000
vn 0.760406 -0.649448 0.000000
vn 0.000000 -0.000000 -1.000000
vn -0.000000 0.000000 1.000000
vn -0.852640 0.522499 0.000000
vn -0.852640 0.522499 0.000000
vn 0.000000 0.000000 -1.000000
vn 0.000000 -0.000000 -1.000000
vn 0.852640 -0.522499 0.000000
vn 0.852640 -0.522499 0.000000
vn 0.000000 -0.000000 -1.000000
vn -0.000000 0.000000 1.000000
vn -0.923880 0.382683 0.000000
vn -0.923880 0.382683 0.000000
vn 0.000000 0.000000 -1.000000
vn 0.000000 -0.000000 -1.000000
vn 0.923880 -0.382683 0.000000
vn 0.923880 -0.382683 0.000000
vn 0.000000 -0.000000 -1.000000
vn -0.000000 0.000000 1.000000
vn -0.972370 0.233445 0.000000
vn -0.972370 0.233445 0.000000
vn 0.000000 -0.000000 -1.000000
vn 0.000000 0.000000 -1.000000
vn 0.972370 -0.233445 0.000000
vn 0.972370 -0.233445 0.000000
vn 0.000000 -0.000000 -1.000000
vn -0.000000 0.000000 1.000000
vn -0.996917 0.078459 0.000000
vn -0.996917 0.078459 0.000000
vn 0.000000 -0.000000 -1.000000
vn 0.000000 0.000000 -1.000000
vn 0.996917 -0.078459 0.000000
vn 0.996917 -0.078459 0.000000
vn 0.000000 -0.000000 -1.000000
vn -0.000000 0.000000 1.000000
vn -0.996917 -0.078459 0.000000
vn -0.996917 -0.078459 -0.000000
vn 0.000000 0.000000 -1.000000
vn 0.000000 0.000000 -1.000000
vn 0.996917 0.078459 0.000000
vn 0.996917 0.078459 -0.000000
vn 0.000000 0.000000 -1.000000
vn 0.000000 -0.000000 1.000000
vn -0.972370 -0.233445 0.000000
vn -0.972370 -0.233445 -0.000000
vn 0.000000 0.000000 -1.000000
vn 0.000000 0.000000 -1.000000
vn 0.972370 0.233445 0.000000
vn 0.972370 0.233445 -0.000000
vn 0.000000 0.000000 -1.000000
vn 0.000000 -0.000000 1.000000
vn -0.923880 -0.382683 0.000000
vn -0.923880 -0.382683 -0.000000
vn 0.000000 0.000000 -1.000000
vn 0.000000 0.000000 -1.000000
vn 0.923880 0.382683 0.000000
vn 0.923880 0.382683 -0.000000
vn 0.000000 0.000000 -1.000000
vn 0.000000 -0.000000 1.000000
vn -0.852640 -0.522499 0.000000
vn -0.852640 -0.522499 -0.000000
vn 0.000000 0.000000 -1.000000
vn 0.000000 0.000000 -1.000000
vn 0.852640 0.522499 0.000000
vn 0.852640 0.522499 -0.000000
vn 0.000000 0.000000 -1.000000
vn 0.000000 -0.000000 1.000000
vn -0.760406 -0.649448 0.000000
vn -0.760406 -0.649448 -0.000000
vn 0.000000 0.000000 -1.000000
vn 0.000000 0.000000 -1.000000
vn 0.760406 0.649448 0.000000
vn 0.760406 0.649448 -0.000000
vn 0.000000 0.000000 -1.000000
vn 0.000000 -0.000000 1.000000
vn -0.649448 -0.760406 0.000000
vn -0.649448 -0.760406 -0.000000
vn 0.000000 0.000000 -1.000000
vn 0.000000 0.000000 -1.000000
vn 0.649448 0.760406 0.000000
vn 0.649448 0.760406 -0.000000
vn 0.000000 0.000000 -1.000000
vn 0.000000 -0.000000 1.000000
vn -0.522499 -0.852640 0.000000
vn -0.522499 -0.852640 -0.000000
vn 0.000000 0.000000 -1.000000
vn 0.000000 0.000000 -1.000000
vn 0.522499 0.852640 0.000000
vn 0.522499 0.852640 -0.000000
vn 0.000000 0.000000 -1.000000
vn 0.000000 -0.000000 1.000000
vn -0.382683 -0.923880 0.000000
vn -0.382683 -0.923880 -0.000000
vn 0.000000 0.000000 -1.000000
vn 0.000000 0.000000 -1.000000
vn 0.382683 0.923880 0.000000
vn 0.382683 0.923880 -0.000000
vn 0.000000 0.000000 -1.000000
vn 0.000000 -0.000000 1.000000
vn -0.233445 -0.972370 0.000000
vn -0.233445 -0.972370 -0.000000
vn 0.000000 0.000000 -1.000000
vn 0.000000 0.000000 -1.000000
vn 0.233445 0.972370 0.000000
vn 0.233445 0.972370 -0.000000
vn 0.000000 0.000000 -1.000000
vn 0.000000 -0.000000 1.000000
vn -0.078459 -0.996917 0.000000
vn -0.078459 -0.996917 -0.000000
vn 0.000000 0.000000 -1.000000
vn 0.000000 0.000000 -1.000000
vn 0.078459 0.996917 0.000000
vn 0.078459 0.996917 -0.000000
vn 0.000000 0.000000 -1.000000
vn 0.000000 -0.000000 1.000000
vn 0.078459 -0.996917 0.000000
vn 0.078459 -0.996917 0.000000
vn 0.000000 0.000000 -1.000000
vn 0.000000 0.000000 -1.000000
vn -0.078459 0.996917 0.000000
vn -0.078459 0.996917 0.000000
vn 0.000000 0.000000 -1.000000
vn 0.000000 0.000000 1.000000
vn 0.233445 -0.972370 0.000000
vn 0.233445 -0.972370 0.000000
vn 0.000000 0.000000 -1.000000
vn 0.000000 0.000000 -1.000000
vn -0.233445 0.972370 0.000000
vn -0.233445 0.972370 0.000000
vn 0.000000 0.000000 -1.000000
vn 0.000000 0.000000 1.000000
vn 0.382683 -0.923880 0.000000
vn 0.382683 -0.923880 0.000000
vn 0.000000 0.000000 -1.000000
vn 0.000000 0.000000 -1.000000
vn -0.382683 0.923880 0.000000
vn -0.382683 0.923880 0.000000
vn 0.000000 0.000000 -1.000000
vn 0.000000 0.000000 1.000000
vn 0.522499 -0.852640 0.000000
vn 0.522499 -0.852640 0.000000
vn 0.000000 0.000000 -1.000000
vn 0.000000 0.000000 -1.000000
vn -0.522499 0.852640 0.000000
vn -0.522499 0.852640 0.000000
vn 0.000000 0.000000 -1.000000
vn 0.000000 0.000000 1.000000
vn 0.649448 -0.760406 0.000000
vn 0.649448 -0.760406 0.000000
vn 0.000000 0.000000 -1.000000
vn 0.000000 0.000000 -1.000000
vn -0.649448 0.760406 0.000000
vn -0.649448 0.760406 0.000000
vn 0.000000 0.000000 -1.000000
vn 0.000000 0.000000 1.000000
vn 0.760406 -0.649448 0.000000
vn 0.760406 -0.649448 0.000000
vn 0.000000 0.000000 -1.000000
vn 0.000000 0.000000 -1.000000
vn -0.760406 0.649448 0.000000
vn -0.760406 0.649448 0.000000
vn 0.000000 0.000000 -1.000000
vn 0.000000 0.000000 1.000000
vn 0.852640 -0.522499 0.000000
vn 0.852640 -0.522499 0.000000
vn 0.000000 0.000000 -1.000000
vn 0.000000 0.000000 -1.000000
vn -0.852640 0.522499 0.000000
vn -0.852640 0.522499 0.000000
vn 0.000000 0.000000 -1.000000
vn 0.000000 0.000000 1.000000
vn 0.923880 -0.382683 0.000000
vn 0.923880 -0.382683 0.000000
vn 0.000000 0.000000 -1.000000
vn 0.000000 0.000000 -1.000000
vn -0.923880 0.382683 0.000000
vn -0.923880 0.382683 0.000000
vn 0.000000 0.000000 -1.000000
vn 0.000000 0.000000 1.000000
vn 0.972370 -0.233445 0.000000
vn 0.972370 -0.233445 0.000000
vn 0.000000 0.000000 -1.000000
vn 0.000000 0.000000 -1.000000
vn -0.972370 0.233445 0.000000
vn -0.972370 0.233445 0.000000
vn 0.000000 0.000000 -1.000000
vn 0.000000 0.000000 1.000000
vn 0.996917 -0.078459 0.000000
vn 0.996917 -0.078459 0.000000
vn 0.000000 0.000000 -1.000000
vn 0.000000 0.000000 -1.000000
vn -0.996917 0.078459 0.000000
vn -0.996917 0.078459 0.000000
vn 0.000000 0.000000 -1.000000
vn 0.000000 0.000000 1.000000
f 1//1 42//1 2//1
f 1//2 41//2 42//2
f 41//3 82//3 42//3
f 41//4 81//4 82//4
f 81//5 122//5 82//5
f 81//6 121//6 122//6
f 121//7 162//7 122//7
f 2//8 161//8 1//8
f 2//9 43//9 3//9
f 2//10 42//10 43//10
f 42//11 83//11 43//11
f 42//12 82//12 83//12
f 82//13 123//13 83//13
f 82//14 122//14 123//14
f 122//15 162//15 123//15
f 3//16 161//16 2//16
f 3//17 44//17 4//17
f 3//18 43//18 44//18
f 43//19 84//19 44//19
f 43//20 83//20 84//20
f 83//21 124//21 84//21
f 83//22 123//22 124//22
f 123//23 162//23 124//23
f 4//24 161//24 3//24
f 4//25 45//25 5//25
f 4//26 44//26 45//26
f 44//27 85//27 45//27
f 44//28 84//28 85//28
f 84//29 125//29 85//29
f 84//30 124//30 125//30
f 124//31 162//31 125//31
f 5//32 161//32 4//32
f 5//33 46//33 6//33
f 5//34 45//34 46//34
f 45//35 86//35 46//35
f 45//36 85//36 86//36
f 85//37 126//37 86//37
f 85//38 125//38 126//38
f 125//39 162//39 126//39
f 6//40 161//40 5//40
f 6//41 47//41 7//41
f 6//42 46//42 47//42
f 46//43 87//43 47//43
f 46//44 86//44 87//44
f 86//45 127//45 87//45
f 86//46 126//46 127//46
f 126//47 162//47 127//47
f 7//48 161//48 6//48
f 7//49 48//49 8//49
f 7//50 47//50 48//50
f 47//51 88//51 48//51
f 47//52 87//52 88//52
f 87//53 128//53 88//53
f 87//54 127//54 128//54
f 127//55 162//55 128//55
f 8//56 161//56 7//56
f 8//57 49//57 9//57
f 8//58 48//58 49//58
f 48//59 89//59 49//59
f 48//60 88//60 89//60
f 88//61 129//61 89//61
f 88//62 128//62 129//62
f 128//63 162//63 129//63
f 9//64 161//64 8//64
f 9//65 50//65 10//65
f 9//66 49//66 50//66
f 49//67 90//67 50//67
f 49//68 89//68 90//68
f 89//69 130//69 90//69
f 89//70 129//70 130//70
f 129//71 162//71 130//71
f 10//72 161//72 9//72
f 10//73 51//73 11//73
f 10//74 50//74 51//74
f 50//75 91//75 51//75
f 50//76 90//76 91//76
f 90//77 131//77 91//77
f 90//78 130//78 131//78
f 130//79 162//79 131//79
f 11//80 161//80 10//80
f 11//81 52//81 12//81
f 11//82 51//82 52//82
f 51//83 92//83 52//83
f 51//84 91//84 92//84
f 91//85 132//85 92//85
f 91//86 131//86 132//86
f 131//87 162//87 132//87
f 12//88 161//88 11//88
f 12//89 53//89 13//89
f 12//90 52//90 53//90
f 52//91 93//91 53//91
f 52//92 92//92 93//92
f 92//93 133//93 93//93
f 92//94 132//94 133//94
f 132//95 162//95 133//95
f 13//96 161//96 12//96
f 13//97 54//97 14//97
f 13//98 53//98 54//98
f 53//99 94//99 54//99
f 53//100 93//100 94//100
f 93//101 134//101 94//101
f 93//102 133//102 134//102
f 133//103 162//103 134//103
f 14//104 161//104 13//104
f 14//105 55//105 15//105
f 14//106 54//106 55//106
f 54//107 95//107 55//107
f 54//108 94//108 95//108
f 94//109 135//109 95//109
f 94//110 134//110 135//110
f 134//111 162//111 135//111
f 15//112 161//112 14//112
f 15//113 56//113 16//113
f 15//114 55//114 56//114
f 55//115 96//115 56//115
f 55//116 95//116 96//116
f 95//117 136//117 96//117
f 95//118 135//118 136//118
f 135//119 162//119 136//119
f 16//120 161//120 15//120
f 16//121 57//121 17//121
f 16//122 56//122 57//122
f 56//123 97//123 57//123
f 56//124 96//124 97//124
f 96//125 137//125 97//125
f 96//126 136//126 137//126
f 136//127 162//127 137//127
f 17//128 161//128 16//128
f 17//129 58//129 18//129
f 17//130 57//130 58//130
f 57//131 98//131 58//131
f 57//132 97//132 98//132
f 97//133 138//133 98//133
f 97//134 137//134 138//134
f 137//135 162//135 138//135
f 18//136 161//136 17//136
f 18//137 59//137 19//137
f 18//138 58//138 59//138
f 58//139 99//139 59//139
f 58//140 98//140 99//140
f 98//141 139//141 99//141
f 98//142 138//142 139//142
f 138//143 162//143 139//143
f 19//144 161//144 18//144
f 19//145 60//145 20//145
f 19//146 59//146 60//146
f 59//147 100//147 60//147
f 59//148 99//148 100//148
f 99//149 140//149 100//149
f 99//150 139//150 140//150
f 139//151 162//151 140//151
f 20//152 161//152 19//152
f 20//153 61//153 21//153
f 20//154 60//154 61//154
f 60//155 101//155 61//155
f 60//156 100//156 101//156
f 100//157 141//157 101//157
f 100//158 140//158 141//158
f 140//159 162//159 141//159
f 21//160 161//160 20//160
f 21//161 62//161 22//161
f 21//162 61//162 62//162
f 61//163 102//163 62//163
f 61//164 101//164 102//164
f 101//165 142//165 102//165
f 101//166 141//166 142//166
f 141//167 162//167 142//167
f 22//168 161//168 21//168
f 22//169 63//169 23//169
f 22//170 62//170 63//170
f 62//171 103//171 63//171
f 62//172 102//172 103//172
f 102//173 143//173 103//173
f 102//174 142//174 143//174
f 142//175 162//175 143//175
f 23//176 161//176 22//176
f 23//177 64//177 24//177
f 23//178 63//178 64//178
f 63//179 104//179 64//179
f 63//180 103//180 104//180
f 103//181 144//181 104//181
f 103//182 143//182 144//182
f 143//183 162//183 144//183
f 24//184 161//184 23//184
f 24//185 65//185 25//185
f 24//186 64//186 65//186
f 64//187 105//187 65//187
f 64//188 104//188 105//188
f 104//189 145//189 105//189
f 104//190 144//190 145//190
f 144//191 162//191 145//191
f 25//192 161//192 24//192
f 25//193 66//193 26//193
f 25//194 65//194 66//194
f 65//195 106//195 66//195
f 65//196 105//196 106//196
f 105//197 146//197 106//197
f 105//198 145//198 146//198
f 145//199 162//199 146//199
f 26//200 161//200 25//200
f 26//201 67//201 27//201
f 26//202 66//202 67//202
f 66//203 107//203 67//203
f 66//204 106//204 107//204
f 106//205 147//205 107//205
f 106//206 146//206 147//206
f 146//207 162//207 147//207
f 27//208 161//208 26//208
f 27//209 68//209 28//209
f 27//210 67//210 68//210
f 67//211 108//211 68//211
f 67//212 107//212 108//212
f 107//213 148//213 108//213
f 107//214 147//214 148//214
f 147//215 162//215 148//215
f 28//216 161//216 27//216
f 28//217 69//217 29//217
f 28//218 68//218 69//218
f 68//219 109//219 69//219
f 68//220 108//220 109//220
f 108//221 149//221 109//221
f 108//222 148//222 149//222
f 148//223 162//223 149//223
f 29//224 161//224 28//224
f 29//225 70//225 30//225
f 29//226 69//226 70//226
f 69//227 110//227 70//227
f 69//228 109//228 110//228
f 109//229 150//229 110//229
f 109//230 149//230 150//230
f 149//231 162//231 150//231
f 30//232 161//232 29//232
f 30//233 71//233 31//233
f 30//234 70//234 71//234
f 70//235 111//235 71//235
f 70//236 110//236 111//236
f 110//237 151//237 111//237
f 110//238 150//238 151//238
f 150//239 162//239 151//239
f 31//240 161//240 30//240
f 31//241 72//241 32//241
f 31//242 71//242 72//242
f 71//243 112//243 72//243
f 71//244 111//244 112//244
f 111//245 152//245 112//245
f 111//246 151//246 152//246
f 151//247 162//247 152//247
f 32//248 161//248 31//248
f 32//249 73//249 33//249
f 32//250 72//250 73//250
f 72//251 113//251 73//251
f 72//252 112//252 113//252
f 112//253 153//253 113//253
f 112//254 152//254 153//254
f 152//255 162//255 153//255
f 33//256 161//256 32//256
f 33//257 74//257 34//257
f 33//258 73//258 74//258
f 73//259 114//259 74//259
f 73//260 113//260 114//260
f 113//261 154//261 114//261
f 113//262 153//262 154//262
f 153//263 162//263 154//263
f 34//264 161//264 33//264
f 34//265 75//265 35//265
f 34//266 74//266 75//266
f 74//267 115//267 75//267
f 74//268 114//268 115//268
f 114//269 155//269 115//269
f 114//270 154//270 155//270
f 154//271 162//271 155//271
f 35//272 161//272 34//272
f 35//273 76//273 36//273
f 35//274 75//274 76//274
f 75//275 116//275 76//275
f 75//276 115//276 116//276
f 115//277 156//277 116//277
f 115//278 155//278 156//278
f 155//279 162//279 156//279
f 36//280 161//280 35//280
f 36//281 77//281 37//281
f 36//282 76//282 77//282
f 76//283 117//283 77//283
f 76//284 116//284 117//284
f 116//285 157//285 117//285
f 116//286 156//286 157//286
f 156//287 162//287 157//287
f 37//288 161//288 36//288
f 37//289 78//289 38//289
f 37//290 77//290 78//290
f 77//291 118//291 78//291
f 77//292 117//292 118//292
f 117//293 158//293 118//293
f 117//294 157//294 158//294
f 157//295 162//295 158//295
f 38//296 161//296 37//296
f 38//297 79//297 39//297
f 38//298 78//298 79//298
f 78//299 119//299 79//299
f 78//300 118//300 119//300
f 118//301 159//301 119//301
f 118//302 158//302 159//302
f 158//303 162//303 159//303
f 39//304 161//304 38//304
f 39//305 80//305 40//305
f 39//306 79//306 80//306
f 79//307 120//307 80//307
f 79//308 119//308 120//308
f 119//309 160//309 120//309
f 119//310 159//310 160//310
f 159//311 162//311 160//311
f 40//312 161//312 39//312
f 40//313 41//313 1//313
f 40//314 80//314 41//314
f 80//315 81//315 41//315
f 80//316 120//316 81//316
f 120//317 121//317 81//317
f 120//318 160//318 121//318
f 160//319 162//319 121//319
f 1//320 161//320 40//320
