# generated by generate_meshes.py (NED, Z down)
v -0.004000 0.000000 0.034000
v -0.004000 0.010507 0.032336
v -0.004000 0.019985 0.027507
v -0.004000 0.027507 0.019985
v -0.004000 0.032336 0.010507
v -0.004000 0.034000 0.000000
v -0.004000 0.032336 -0.010507
v -0.004000 0.027507 -0.019985
v -0.004000 0.019985 -0.027507
v -0.004000 0.010507 -0.032336
v -0.004000 0.000000 -0.034000
v -0.004000 -0.010507 -0.032336
v -0.004000 -0.019985 -0.027507
v -0.004000 -0.027507 -0.019985
v -0.004000 -0.032336 -0.010507
v -0.004000 -0.034000 -0.000000
v -0.004000 -0.032336 0.010507
v -0.004000 -0.027507 0.019985
v -0.004000 -0.019985 0.027507
v -0.004000 -0.010507 0.032336
v 0.004000 0.000000 0.034000
v 0.004000 0.010507 0.032336
v 0.004000 0.019985 0.027507
v 0.004000 0.027507 0.019985
v 0.004000 0.032336 0.010507
v 0.004000 0.034000 0.000000
v 0.004000 0.032336 -0.010507
v 0.004000 0.027507 -0.019985
v 0.004000 0.019985 -0.027507
v 0.004000 0.010507 -0.032336
v 0.004000 0.000000 -0.034000
v 0.004000 -0.010507 -0.032336
v 0.004000 -0.019985 -0.027507
v 0.004000 -0.027507 -0.019985
v 0.004000 -0.032336 -0.010507
v 0.004000 -0.034000 -0.000000
v 0.004000 -0.032336 0.010507
v 0.004000 -0.027507 0.019985
v 0.004000 -0.019985 0.027507
v 0.004000 -0.010507 0.032336
v 0.000000 0.000000 -0.004000
v 0.000000 0.000000 0.004000
vn 0.994369 0.016578 0.104670
vn -0.991011 0.020928 0.132135
vn 0.000000 -0.156434 -0.987688
vn 0.000000 -0.156434 -0.987688
vn 0.994252 0.048607 0.095396
vn -0.991238 0.059967 0.117692
vn 0.000000 -0.453990 -0.891007
vn 0.000000 -0.453990 -0.891007
vn 0.994019 0.077218 0.077218
vn -0.991647 0.091204 0.091204
vn 0.000000 -0.707107 -0.707107
vn 0.000000 -0.707107 -0.707107
vn 0.993676 0.100049 0.050978
vn -0.992165 0.111319 0.056720
vn 0.000000 -0.891007 -0.453990
vn 0.000000 -0.891007 -0.453990
vn 0.993232 0.114713 0.018169
vn -0.992714 0.119007 0.018849
vn 0.000000 -0.987688 -0.156434
vn 0.000000 -0.987688 -0.156434
vn 0.992714 0.119007 -0.018849
vn -0.993232 0.114713 -0.018169
vn 0.000000 -0.987688 0.156434
vn 0.000000 -0.987688 0.156434
vn 0.992165 0.111319 -0.056720
vn -0.993676 0.100049 -0.050978
vn 0.000000 -0.891007 0.453990
vn 0.000000 -0.891007 0.453990
vn 0.991647 0.091204 -0.091204
vn -0.994019 0.077218 -0.077218
vn 0.000000 -0.707107 0.707107
vn 0.000000 -0.707107 0.707107
vn 0.991238 0.059967 -0.117692
vn -0.994252 0.048607 -0.095396
vn 0.000000 -0.453990 0.891007
vn 0.000000 -0.453990 0.891007
vn 0.991011 0.020928 -0.132135
vn -0.994369 0.016578 -0.104670
vn 0.000000 -0.156434 0.987688
vn 0.000000 -0.156434 0.987688
vn 0.991011 -0.020928 -0.132135
vn -0.994369 -0.016578 -0.104670
vn -0.000000 0.156434 0.987688
vn 0.000000 0.156434 0.987688
vn 0.991238 -0.059967 -0.117692
vn -0.994252 -0.048607 -0.095396
vn -0.000000 0.453990 0.891007
vn 0.000000 0.453990 0.891007
vn 0.991647 -0.091204 -0.091204
vn -0.994019 -0.077218 -0.077218
vn -0.000000 0.707107 0.707107
vn 0.000000 0.707107 0.707107
vn 0.992165 -0.111319 -0.056720
vn -0.993676 -0.100049 -0.050978
vn -0.000000 0.891007 0.453990
vn 0.000000 0.891007 0.453990
vn 0.992714 -0.119007 -0.018849
vn -0.993232 -0.114713 -0.018169
vn -0.000000 0.987688 0.156434
vn 0.000000 0.987688 0.156434
vn 0.993232 -0.114713 0.018169
vn -0.992714 -0.119007 0.018849
vn 0.000000 0.987688 -0.156434
vn 0.000000 0.987688 -0.156434
vn 0.993676 -0.100049 0.050978
vn -0.992165 -0.111319 0.056720
vn 0.000000 0.891007 -0.453990
vn 0.000000 0.891007 -0.453990
vn 0.994019 -0.077218 0.077218
vn -0.991647 -0.091204 0.091204
vn 0.000000 0.707107 -0.707107
vn 0.000000 0.707107 -0.707107
vn 0.994252 -0.048607 0.095396
vn -0.991238 -0.059967 0.117692
vn 0.000000 0.453990 -0.891007
vn 0.000000 0.453990 -0.891007
vn 0.994369 -0.016578 0.104670
vn -0.991011 -0.020928 0.132135
vn 0.000000 0.156434 -0.987688
vn 0.000000 0.156434 -0.987688
f 1//1 41//1 2//1
f 22//2 42//2 21//2
f 1//3 22//3 21//3
f 1//4 2//4 22//4
f 2//5 41//5 3//5
f 23//6 42//6 22//6
f 2//7 23//7 22//7
f 2//8 3//8 23//8
f 3//9 41//9 4//9
f 24//10 42//10 23//10
f 3//11 24//11 23//11
f 3//12 4//12 24//12
f 4//13 41//13 5//13
f 25//14 42//14 24//14
f 4//15 25//15 24//15
f 4//16 5//16 25//16
f 5//17 41//17 6//17
f 26//18 42//18 25//18
f 5//19 26//19 25//19
f 5//20 6//20 26//20
f 6//21 41//21 7//21
f 27//22 42//22 26//22
f 6//23 27//23 26//23
f 6//24 7//24 27//24
f 7//25 41//25 8//25
f 28//26 42//26 27//26
f 7//27 28//27 27//27
f 7//28 8//28 28//28
f 8//29 41//29 9//29
f 29//30 42//30 28//30
f 8//31 29//31 28//31
f 8//32 9//32 29//32
f 9//33 41//33 10//33
f 30//34 42//34 29//34
f 9//35 30//35 29//35
f 9//36 10//36 30//36
f 10//37 41//37 11//37
f 31//38 42//38 30//38
f 10//39 31//39 30//39
f 10//40 11//40 31//40
f 11//41 41//41 12//41
f 32//42 42//42 31//42
f 11//43 32//43 31//43
f 11//44 12//44 32//44
f 12//45 41//45 13//45
f 33//46 42//46 32//46
f 12//47 33//47 32//47
f 12//48 13//48 33//48
f 13//49 41//49 14//49
f 34//50 42//50 33//50
f 13//51 34//51 33//51
f 13//52 14//52 34//52
f 14//53 41//53 15//53
f 35//54 42//54 34//54
f 14//55 35//55 34//55
f 14//56 15//56 35//56
f 15//57 41//57 16//57
f 36//58 42//58 35//58
f 15//59 36//59 35//59
f 15//60 16//60 36//60
f 16//61 41//61 17//61
f 37//62 42//62 36//62
f 16//63 37//63 36//63
f 16//64 17//64 37//64
f 17//65 41//65 18//65
f 38//66 42//66 37//66
f 17//67 38//67 37//67
f 17//68 18//68 38//68
f 18//69 41//69 19//69
f 39//70 42//70 38//70
f 18//71 39//71 38//71
f 18//72 19//72 39//72
f 19//73 41//73 20//73
f 40//74 42//74 39//74
f 19//75 40//75 39//75
f 19//76 20//76 40//76
f 20//77 41//77 1//77
f 21//78 42//78 40//78
f 20//79 21//79 40//79
f 20//80 1//80 21//80
